<?xml version="1.0" encoding="UTF-8" standalone="no"?>
<svg id="svg4196" xmlns:rdf="http://www.w3.org/1999/02/22-rdf-syntax-ns#" xmlns="http://www.w3.org/2000/svg" height="512" width="512" version="1.1" xmlns:cc="http://creativecommons.org/ns#" xmlns:dc="http://purl.org/dc/elements/1.1/" viewBox="0 0 512 512">
 <metadata id="metadata4217">
  <rdf:RDF>
   <cc:Work rdf:about="">
    <dc:format>image/svg+xml</dc:format>
    <dc:type rdf:resource="http://purl.org/dc/dcmitype/StillImage"/>
    <dc:title/>
   </cc:Work>
  </rdf:RDF>
 </metadata>
 <defs id="defs4198">
  <pattern id="bg" width="40" patternUnits="userSpaceOnUse" patternTransform="scale(3)" height="40">
   <g id="g4201" fill-rule="evenodd" fill="#bbb">
    <path id="path4203" d="m0 40l40-40h-20l-20 20m40 20v-20l-20 20"/>
   </g>
  </pattern>
 </defs>
 <rect id="rect4205" height="100%" width="100%" y="0" x="0" fill="#ccc"/>
 <g id="g4207" fill="#ccc">
  <rect id="rect4209" height="100%" width="100%" y="0" x="0" fill="url(#bg)"/>
 </g>
 <rect id="rect4211" height="128" width="128" y="320" x="192" fill="url(hitmarkers/materials/hitmarkers/hitmarker.png)"/>
 <rect id="rect4213" height="495.94" width="495.94" stroke="#bbb" y="8.0314" x="8.0314" stroke-width="16.063px" fill="none"/>
 <g id="g4326" transform="translate(.0000012207 -20)">
  <text id="text4219" stroke-linejoin="round" style="word-spacing:0px;letter-spacing:0px;text-anchor:middle;text-align:center" font-family="Helvetica" font-weight="500" line-height="100%" font-size="90px" stroke="#000000" y="191.00835" x="254.155" stroke-width="2" xml:space="preserve" fill="#ffffff"><tspan id="tspan4221" y="191.00835" x="254.155">Simple</tspan><tspan id="tspan4223" y="281.00836" x="254.155">Hitmarkers</tspan></text>
  <g id="g4168" stroke-linecap="round" transform="matrix(1.9982 0 0 1.9982 156.09 287.45)">
   <g stroke="#000" stroke-width="4">
    <line id="line4" y2="40" x2="40" y1="30" x1="30"/>
    <line id="line6" y2="70" x2="70" y1="60" x1="60"/>
    <line id="line8" y2="40" x2="60" y1="30" x1="70"/>
    <line id="line10" y2="60" x2="40" y1="70" x1="30"/>
   </g>
   <g stroke="#fff" stroke-width="2">
    <line id="line12" y2="40" x2="40" y1="30" x1="30"/>
    <line id="line14" y2="70" x2="70" y1="60" x1="60"/>
    <line id="line16" y2="40" x2="60" y1="30" x1="70"/>
    <line id="line18" y2="60" x2="40" y1="70" x1="30"/>
   </g>
  </g>
 </g>
</svg>
